<svg width="512" height="512" viewBox="0 0 512 512" fill="none" xmlns="http://www.w3.org/2000/svg" role="img" aria-label="Workout 3D premium logo B">
  <defs>
    <linearGradient id="bgB" x1="38" y1="26" x2="468" y2="486" gradientUnits="userSpaceOnUse">
      <stop stop-color="#0f1416"/>
      <stop offset="1" stop-color="#071017"/>
    </linearGradient>
    <linearGradient id="ringB" x1="68" y1="70" x2="446" y2="446" gradientUnits="userSpaceOnUse">
      <stop stop-color="#00bef0"/>
      <stop offset="1" stop-color="#0077b6"/>
    </linearGradient>
    <linearGradient id="armB" x1="106" y1="326" x2="318" y2="196" gradientUnits="userSpaceOnUse">
      <stop stop-color="#ff6072"/>
      <stop offset="1" stop-color="#e63946"/>
    </linearGradient>
  </defs>

  <rect x="20" y="20" width="472" height="472" rx="110" fill="url(#bgB)"/>
  <circle cx="256" cy="256" r="184" stroke="url(#ringB)" stroke-width="16" opacity="0.5"/>

  <path d="M90 338C108 286 148 232 201 200C222 187 243 180 260 180C271 180 279 184 284 189L305 211C313 219 315 230 310 239C304 251 289 259 275 257C263 256 250 252 235 245C223 258 212 278 203 296C242 280 286 272 325 277C339 279 348 286 348 297C348 308 339 317 325 323C293 336 248 343 208 343C186 343 168 341 154 337C135 333 112 338 90 338Z" fill="url(#armB)"/>

  <path d="M294 273C308 282 319 296 326 313" stroke="#00bef0" stroke-width="14" stroke-linecap="round"/>
  <path d="M315 260C333 274 347 296 357 322" stroke="#00bef0" stroke-width="14" stroke-linecap="round" opacity="0.95"/>
  <path d="M337 245C358 262 375 288 387 327" stroke="#00bef0" stroke-width="14" stroke-linecap="round" opacity="0.9"/>
</svg>
